<?xml version="1.0" encoding="UTF-8" standalone="no"?>
<!-- Created with Inkscape (http://www.inkscape.org/) -->

<svg
   xmlns:dc="http://purl.org/dc/elements/1.1/"
   xmlns:cc="http://creativecommons.org/ns#"
   xmlns:rdf="http://www.w3.org/1999/02/22-rdf-syntax-ns#"
   xmlns:svg="http://www.w3.org/2000/svg"
   xmlns="http://www.w3.org/2000/svg"
   xmlns:sodipodi="http://sodipodi.sourceforge.net/DTD/sodipodi-0.dtd"
   xmlns:inkscape="http://www.inkscape.org/namespaces/inkscape"
   width="128"
   height="128"
   id="svg3469"
   version="1.1"
   inkscape:version="0.91 r13725"
   viewBox="0 0 128 128"
   sodipodi:docname="logo-helpet.svg"
   inkscape:export-filename="/home/rbran/src/HelpPet-uvv/multimidia/logo-helpet.png"
   inkscape:export-xdpi="90"
   inkscape:export-ydpi="90">
  <defs
     id="defs3471" />
  <sodipodi:namedview
     id="base"
     pagecolor="#ffffff"
     bordercolor="#666666"
     borderopacity="1.0"
     inkscape:pageopacity="0"
     inkscape:pageshadow="2"
     inkscape:zoom="3.8890873"
     inkscape:cx="13.836198"
     inkscape:cy="30.810273"
     inkscape:current-layer="layer1"
     showgrid="true"
     inkscape:document-units="px"
     inkscape:grid-bbox="true"
     inkscape:snap-global="true"
     showguides="true"
     inkscape:guide-bbox="true"
     inkscape:window-width="1916"
     inkscape:window-height="1029"
     inkscape:window-x="0"
     inkscape:window-y="1104"
     inkscape:window-maximized="0" />
  <metadata
     id="metadata3474">
    <rdf:RDF>
      <cc:Work
         rdf:about="">
        <dc:format>image/svg+xml</dc:format>
        <dc:type
           rdf:resource="http://purl.org/dc/dcmitype/StillImage" />
        <dc:title></dc:title>
      </cc:Work>
    </rdf:RDF>
  </metadata>
  <g
     id="layer1"
     inkscape:label="Layer 1"
     inkscape:groupmode="layer"
     transform="translate(0,64)">
    <g
       id="g3531"
       transform="matrix(2.0267254,0,0,2.0267254,-1.0039771,-63.246396)">
      <g
         transform="matrix(0.13019619,0,0,0.13019619,-6.9171761,-18.515119)"
         id="Layer_2">
        <circle
           style="fill:#f5be19;stroke:#000000;stroke-miterlimit:10"
           id="circle8"
           r="134.41499"
           cy="323.31601"
           cx="308.22501"
           stroke-miterlimit="10" />
        <circle
           style="fill:#ffffff;stroke:#000000;stroke-width:4"
           id="circle10"
           r="93.900002"
           cy="324.729"
           cx="307.94199" />
        <path
           style="fill:none;stroke:#000000;stroke-width:2"
           inkscape:connector-curvature="0"
           id="path12"
           d="m 247.157,363.486 c 0,0 31.697,38.334 80.553,25.063 45.746,-12.426 48.572,-49.42 49.982,-65.233" />
        <line
           style="fill:none;stroke:#000000;stroke-width:2"
           id="line14"
           y2="353.815"
           x2="316.69699"
           y1="389.06699"
           x1="325.651" />
        <path
           style="stroke:#000000;stroke-width:2"
           inkscape:connector-curvature="0"
           id="path16"
           d="m 317.577,354.803 c 0,0 15.99,-8.366 10.59,-22.344 -1.589,-3.495 -30.392,1.589 -34.733,11.172 -1.483,3.548 11.859,16.467 24.143,11.172 z" />
        <path
           style="fill:none;stroke:#000000;stroke-width:8"
           inkscape:connector-curvature="0"
           id="path18"
           d="m 337.294,283.248 c 5.704,0 18.724,4.962 18.724,19.098 0,14.137 -10.292,15.997 -13.641,15.997 -3.346,0 -19.965,-0.498 -19.965,-18.477 0,-17.98 14.882,-16.618 14.882,-16.618 z" />
        <path
           style="fill:none;stroke:#000000;stroke-width:2"
           inkscape:connector-curvature="0"
           id="path20"
           d="M 285.915,315.199 C 277.02,314.564 256.9,311.81 256.053,335.954" />
        <path
           style="stroke:#000000"
           inkscape:connector-curvature="0"
           id="path22"
           d="m 243.345,234.718 c 0.314,6.986 2.542,48.288 2.753,54.642 0.212,6.354 -2.33,25.207 -33.462,25.416 -31.133,0.21 -33.251,0 -33.251,0 0,0 -32.738,4.351 -0.485,-28.217 32.253,-32.568 44.113,-44.639 47.714,-47.604 3.601,-2.965 16.38,-12.044 16.731,-4.237 z" />
        <path
           style="stroke:#000000"
           inkscape:connector-curvature="0"
           id="path24"
           d="m 307.18,214.783 c 3.66,5.956 25.012,41.386 28.4,46.761 3.395,5.377 16.082,19.55 41.964,2.245 25.881,-17.306 27.516,-18.669 27.516,-18.669 0,0 29.531,-14.782 -15.447,-23.623 -44.973,-8.84 -61.564,-12.171 -66.207,-12.603 -4.647,-0.432 -20.316,-0.77 -16.226,5.889 z" />
      </g>
      <g
         transform="matrix(0.13019619,0,0,0.13019619,-7.3746358,-18.151483)"
         id="Layer_3">
        <text
           id="text27"
           transform="translate(53.0811,549.9922)">
          <tspan
             style="font-style:normal;font-variant:normal;font-weight:normal;font-stretch:normal;font-size:114.58899689px;font-family:'Arial Black';-inkscape-font-specification:'Arial Black, '"
             id="tspan29"
             font-size="114.589"
             y="0"
             x="0">HelpPet</tspan>
        </text>
      </g>
    </g>
  </g>
</svg>
